<?xml version="1.0" encoding="utf-8" standalone="no"?>
<!DOCTYPE svg PUBLIC "-//W3C//DTD SVG 1.1//EN"
  "http://www.w3.org/Graphics/SVG/1.1/DTD/svg11.dtd">
<svg xmlns:xlink="http://www.w3.org/1999/xlink" width="1080pt" height="288pt" viewBox="0 0 1080 288" xmlns="http://www.w3.org/2000/svg" version="1.1">
 <metadata>
  <rdf:RDF xmlns:dc="http://purl.org/dc/elements/1.1/" xmlns:cc="http://creativecommons.org/ns#" xmlns:rdf="http://www.w3.org/1999/02/22-rdf-syntax-ns#">
   <cc:Work>
    <dc:type rdf:resource="http://purl.org/dc/dcmitype/StillImage"/>
    <dc:date>2023-09-18T16:07:00.660978</dc:date>
    <dc:format>image/svg+xml</dc:format>
    <dc:creator>
     <cc:Agent>
      <dc:title>Matplotlib v3.7.1, https://matplotlib.org/</dc:title>
     </cc:Agent>
    </dc:creator>
   </cc:Work>
  </rdf:RDF>
 </metadata>
 <defs>
  <style type="text/css">*{stroke-linejoin: round; stroke-linecap: butt}</style>
 </defs>
 <g id="figure_1">
  <g id="patch_1">
   <path d="M 0 288 
L 1080 288 
L 1080 0 
L 0 0 
z
" style="fill: #f0f0f0"/>
  </g>
  <g id="axes_1">
   <g id="patch_2">
    <path d="M 38.32 254.21375 
L 1064.88 254.21375 
L 1064.88 44.64 
L 38.32 44.64 
z
" style="fill: #f0f0f0"/>
   </g>
   <g id="matplotlib.axis_1">
    <g id="xtick_1">
     <g id="text_1">
      <!-- age -->
      <g style="fill: #262626" transform="translate(101.399386 269.572031) scale(0.11 -0.11)">
       <defs>
        <path id="DejaVuSans-61" d="M 2194 1759 
Q 1497 1759 1228 1600 
Q 959 1441 959 1056 
Q 959 750 1161 570 
Q 1363 391 1709 391 
Q 2188 391 2477 730 
Q 2766 1069 2766 1631 
L 2766 1759 
L 2194 1759 
z
M 3341 1997 
L 3341 0 
L 2766 0 
L 2766 531 
Q 2569 213 2275 61 
Q 1981 -91 1556 -91 
Q 1019 -91 701 211 
Q 384 513 384 1019 
Q 384 1609 779 1909 
Q 1175 2209 1959 2209 
L 2766 2209 
L 2766 2266 
Q 2766 2663 2505 2880 
Q 2244 3097 1772 3097 
Q 1472 3097 1187 3025 
Q 903 2953 641 2809 
L 641 3341 
Q 956 3463 1253 3523 
Q 1550 3584 1831 3584 
Q 2591 3584 2966 3190 
Q 3341 2797 3341 1997 
z
" transform="scale(0.015625)"/>
        <path id="DejaVuSans-67" d="M 2906 1791 
Q 2906 2416 2648 2759 
Q 2391 3103 1925 3103 
Q 1463 3103 1205 2759 
Q 947 2416 947 1791 
Q 947 1169 1205 825 
Q 1463 481 1925 481 
Q 2391 481 2648 825 
Q 2906 1169 2906 1791 
z
M 3481 434 
Q 3481 -459 3084 -895 
Q 2688 -1331 1869 -1331 
Q 1566 -1331 1297 -1286 
Q 1028 -1241 775 -1147 
L 775 -588 
Q 1028 -725 1275 -790 
Q 1522 -856 1778 -856 
Q 2344 -856 2625 -561 
Q 2906 -266 2906 331 
L 2906 616 
Q 2728 306 2450 153 
Q 2172 0 1784 0 
Q 1141 0 747 490 
Q 353 981 353 1791 
Q 353 2603 747 3093 
Q 1141 3584 1784 3584 
Q 2172 3584 2450 3431 
Q 2728 3278 2906 2969 
L 2906 3500 
L 3481 3500 
L 3481 434 
z
" transform="scale(0.015625)"/>
        <path id="DejaVuSans-65" d="M 3597 1894 
L 3597 1613 
L 953 1613 
Q 991 1019 1311 708 
Q 1631 397 2203 397 
Q 2534 397 2845 478 
Q 3156 559 3463 722 
L 3463 178 
Q 3153 47 2828 -22 
Q 2503 -91 2169 -91 
Q 1331 -91 842 396 
Q 353 884 353 1716 
Q 353 2575 817 3079 
Q 1281 3584 2069 3584 
Q 2775 3584 3186 3129 
Q 3597 2675 3597 1894 
z
M 3022 2063 
Q 3016 2534 2758 2815 
Q 2500 3097 2075 3097 
Q 1594 3097 1305 2825 
Q 1016 2553 972 2059 
L 3022 2063 
z
" transform="scale(0.015625)"/>
       </defs>
       <use xlink:href="#DejaVuSans-61"/>
       <use xlink:href="#DejaVuSans-67" x="61.279297"/>
       <use xlink:href="#DejaVuSans-65" x="124.755859"/>
      </g>
     </g>
    </g>
    <g id="xtick_2">
     <g id="text_2">
      <!-- quality_of_sleep -->
      <g style="fill: #262626" transform="translate(214.027299 269.572031) scale(0.11 -0.11)">
       <defs>
        <path id="DejaVuSans-71" d="M 947 1747 
Q 947 1113 1208 752 
Q 1469 391 1925 391 
Q 2381 391 2643 752 
Q 2906 1113 2906 1747 
Q 2906 2381 2643 2742 
Q 2381 3103 1925 3103 
Q 1469 3103 1208 2742 
Q 947 2381 947 1747 
z
M 2906 525 
Q 2725 213 2448 61 
Q 2172 -91 1784 -91 
Q 1150 -91 751 415 
Q 353 922 353 1747 
Q 353 2572 751 3078 
Q 1150 3584 1784 3584 
Q 2172 3584 2448 3432 
Q 2725 3281 2906 2969 
L 2906 3500 
L 3481 3500 
L 3481 -1331 
L 2906 -1331 
L 2906 525 
z
" transform="scale(0.015625)"/>
        <path id="DejaVuSans-75" d="M 544 1381 
L 544 3500 
L 1119 3500 
L 1119 1403 
Q 1119 906 1312 657 
Q 1506 409 1894 409 
Q 2359 409 2629 706 
Q 2900 1003 2900 1516 
L 2900 3500 
L 3475 3500 
L 3475 0 
L 2900 0 
L 2900 538 
Q 2691 219 2414 64 
Q 2138 -91 1772 -91 
Q 1169 -91 856 284 
Q 544 659 544 1381 
z
M 1991 3584 
L 1991 3584 
z
" transform="scale(0.015625)"/>
        <path id="DejaVuSans-6c" d="M 603 4863 
L 1178 4863 
L 1178 0 
L 603 0 
L 603 4863 
z
" transform="scale(0.015625)"/>
        <path id="DejaVuSans-69" d="M 603 3500 
L 1178 3500 
L 1178 0 
L 603 0 
L 603 3500 
z
M 603 4863 
L 1178 4863 
L 1178 4134 
L 603 4134 
L 603 4863 
z
" transform="scale(0.015625)"/>
        <path id="DejaVuSans-74" d="M 1172 4494 
L 1172 3500 
L 2356 3500 
L 2356 3053 
L 1172 3053 
L 1172 1153 
Q 1172 725 1289 603 
Q 1406 481 1766 481 
L 2356 481 
L 2356 0 
L 1766 0 
Q 1100 0 847 248 
Q 594 497 594 1153 
L 594 3053 
L 172 3053 
L 172 3500 
L 594 3500 
L 594 4494 
L 1172 4494 
z
" transform="scale(0.015625)"/>
        <path id="DejaVuSans-79" d="M 2059 -325 
Q 1816 -950 1584 -1140 
Q 1353 -1331 966 -1331 
L 506 -1331 
L 506 -850 
L 844 -850 
Q 1081 -850 1212 -737 
Q 1344 -625 1503 -206 
L 1606 56 
L 191 3500 
L 800 3500 
L 1894 763 
L 2988 3500 
L 3597 3500 
L 2059 -325 
z
" transform="scale(0.015625)"/>
        <path id="DejaVuSans-5f" d="M 3263 -1063 
L 3263 -1509 
L -63 -1509 
L -63 -1063 
L 3263 -1063 
z
" transform="scale(0.015625)"/>
        <path id="DejaVuSans-6f" d="M 1959 3097 
Q 1497 3097 1228 2736 
Q 959 2375 959 1747 
Q 959 1119 1226 758 
Q 1494 397 1959 397 
Q 2419 397 2687 759 
Q 2956 1122 2956 1747 
Q 2956 2369 2687 2733 
Q 2419 3097 1959 3097 
z
M 1959 3584 
Q 2709 3584 3137 3096 
Q 3566 2609 3566 1747 
Q 3566 888 3137 398 
Q 2709 -91 1959 -91 
Q 1206 -91 779 398 
Q 353 888 353 1747 
Q 353 2609 779 3096 
Q 1206 3584 1959 3584 
z
" transform="scale(0.015625)"/>
        <path id="DejaVuSans-66" d="M 2375 4863 
L 2375 4384 
L 1825 4384 
Q 1516 4384 1395 4259 
Q 1275 4134 1275 3809 
L 1275 3500 
L 2222 3500 
L 2222 3053 
L 1275 3053 
L 1275 0 
L 697 0 
L 697 3053 
L 147 3053 
L 147 3500 
L 697 3500 
L 697 3744 
Q 697 4328 969 4595 
Q 1241 4863 1831 4863 
L 2375 4863 
z
" transform="scale(0.015625)"/>
        <path id="DejaVuSans-73" d="M 2834 3397 
L 2834 2853 
Q 2591 2978 2328 3040 
Q 2066 3103 1784 3103 
Q 1356 3103 1142 2972 
Q 928 2841 928 2578 
Q 928 2378 1081 2264 
Q 1234 2150 1697 2047 
L 1894 2003 
Q 2506 1872 2764 1633 
Q 3022 1394 3022 966 
Q 3022 478 2636 193 
Q 2250 -91 1575 -91 
Q 1294 -91 989 -36 
Q 684 19 347 128 
L 347 722 
Q 666 556 975 473 
Q 1284 391 1588 391 
Q 1994 391 2212 530 
Q 2431 669 2431 922 
Q 2431 1156 2273 1281 
Q 2116 1406 1581 1522 
L 1381 1569 
Q 847 1681 609 1914 
Q 372 2147 372 2553 
Q 372 3047 722 3315 
Q 1072 3584 1716 3584 
Q 2034 3584 2315 3537 
Q 2597 3491 2834 3397 
z
" transform="scale(0.015625)"/>
        <path id="DejaVuSans-70" d="M 1159 525 
L 1159 -1331 
L 581 -1331 
L 581 3500 
L 1159 3500 
L 1159 2969 
Q 1341 3281 1617 3432 
Q 1894 3584 2278 3584 
Q 2916 3584 3314 3078 
Q 3713 2572 3713 1747 
Q 3713 922 3314 415 
Q 2916 -91 2278 -91 
Q 1894 -91 1617 61 
Q 1341 213 1159 525 
z
M 3116 1747 
Q 3116 2381 2855 2742 
Q 2594 3103 2138 3103 
Q 1681 3103 1420 2742 
Q 1159 2381 1159 1747 
Q 1159 1113 1420 752 
Q 1681 391 2138 391 
Q 2594 391 2855 752 
Q 3116 1113 3116 1747 
z
" transform="scale(0.015625)"/>
       </defs>
       <use xlink:href="#DejaVuSans-71"/>
       <use xlink:href="#DejaVuSans-75" x="63.476562"/>
       <use xlink:href="#DejaVuSans-61" x="126.855469"/>
       <use xlink:href="#DejaVuSans-6c" x="188.134766"/>
       <use xlink:href="#DejaVuSans-69" x="215.917969"/>
       <use xlink:href="#DejaVuSans-74" x="243.701172"/>
       <use xlink:href="#DejaVuSans-79" x="282.910156"/>
       <use xlink:href="#DejaVuSans-5f" x="342.089844"/>
       <use xlink:href="#DejaVuSans-6f" x="392.089844"/>
       <use xlink:href="#DejaVuSans-66" x="453.271484"/>
       <use xlink:href="#DejaVuSans-5f" x="488.476562"/>
       <use xlink:href="#DejaVuSans-73" x="538.476562"/>
       <use xlink:href="#DejaVuSans-6c" x="590.576172"/>
       <use xlink:href="#DejaVuSans-65" x="618.359375"/>
       <use xlink:href="#DejaVuSans-65" x="679.882812"/>
       <use xlink:href="#DejaVuSans-70" x="741.40625"/>
      </g>
     </g>
    </g>
    <g id="xtick_3">
     <g id="text_3">
      <!-- physical_activity_level -->
      <g style="fill: #262626" transform="translate(343.547087 269.572031) scale(0.11 -0.11)">
       <defs>
        <path id="DejaVuSans-68" d="M 3513 2113 
L 3513 0 
L 2938 0 
L 2938 2094 
Q 2938 2591 2744 2837 
Q 2550 3084 2163 3084 
Q 1697 3084 1428 2787 
Q 1159 2491 1159 1978 
L 1159 0 
L 581 0 
L 581 4863 
L 1159 4863 
L 1159 2956 
Q 1366 3272 1645 3428 
Q 1925 3584 2291 3584 
Q 2894 3584 3203 3211 
Q 3513 2838 3513 2113 
z
" transform="scale(0.015625)"/>
        <path id="DejaVuSans-63" d="M 3122 3366 
L 3122 2828 
Q 2878 2963 2633 3030 
Q 2388 3097 2138 3097 
Q 1578 3097 1268 2742 
Q 959 2388 959 1747 
Q 959 1106 1268 751 
Q 1578 397 2138 397 
Q 2388 397 2633 464 
Q 2878 531 3122 666 
L 3122 134 
Q 2881 22 2623 -34 
Q 2366 -91 2075 -91 
Q 1284 -91 818 406 
Q 353 903 353 1747 
Q 353 2603 823 3093 
Q 1294 3584 2113 3584 
Q 2378 3584 2631 3529 
Q 2884 3475 3122 3366 
z
" transform="scale(0.015625)"/>
        <path id="DejaVuSans-76" d="M 191 3500 
L 800 3500 
L 1894 563 
L 2988 3500 
L 3597 3500 
L 2284 0 
L 1503 0 
L 191 3500 
z
" transform="scale(0.015625)"/>
       </defs>
       <use xlink:href="#DejaVuSans-70"/>
       <use xlink:href="#DejaVuSans-68" x="63.476562"/>
       <use xlink:href="#DejaVuSans-79" x="126.855469"/>
       <use xlink:href="#DejaVuSans-73" x="186.035156"/>
       <use xlink:href="#DejaVuSans-69" x="238.134766"/>
       <use xlink:href="#DejaVuSans-63" x="265.917969"/>
       <use xlink:href="#DejaVuSans-61" x="320.898438"/>
       <use xlink:href="#DejaVuSans-6c" x="382.177734"/>
       <use xlink:href="#DejaVuSans-5f" x="409.960938"/>
       <use xlink:href="#DejaVuSans-61" x="459.960938"/>
       <use xlink:href="#DejaVuSans-63" x="521.240234"/>
       <use xlink:href="#DejaVuSans-74" x="576.220703"/>
       <use xlink:href="#DejaVuSans-69" x="615.429688"/>
       <use xlink:href="#DejaVuSans-76" x="643.212891"/>
       <use xlink:href="#DejaVuSans-69" x="702.392578"/>
       <use xlink:href="#DejaVuSans-74" x="730.175781"/>
       <use xlink:href="#DejaVuSans-79" x="769.384766"/>
       <use xlink:href="#DejaVuSans-5f" x="828.564453"/>
       <use xlink:href="#DejaVuSans-6c" x="878.564453"/>
       <use xlink:href="#DejaVuSans-65" x="906.347656"/>
       <use xlink:href="#DejaVuSans-76" x="967.871094"/>
       <use xlink:href="#DejaVuSans-65" x="1027.050781"/>
       <use xlink:href="#DejaVuSans-6c" x="1088.574219"/>
      </g>
     </g>
    </g>
    <g id="xtick_4">
     <g id="text_4">
      <!-- stress_level -->
      <g style="fill: #262626" transform="translate(519.497187 269.572031) scale(0.11 -0.11)">
       <defs>
        <path id="DejaVuSans-72" d="M 2631 2963 
Q 2534 3019 2420 3045 
Q 2306 3072 2169 3072 
Q 1681 3072 1420 2755 
Q 1159 2438 1159 1844 
L 1159 0 
L 581 0 
L 581 3500 
L 1159 3500 
L 1159 2956 
Q 1341 3275 1631 3429 
Q 1922 3584 2338 3584 
Q 2397 3584 2469 3576 
Q 2541 3569 2628 3553 
L 2631 2963 
z
" transform="scale(0.015625)"/>
       </defs>
       <use xlink:href="#DejaVuSans-73"/>
       <use xlink:href="#DejaVuSans-74" x="52.099609"/>
       <use xlink:href="#DejaVuSans-72" x="91.308594"/>
       <use xlink:href="#DejaVuSans-65" x="130.171875"/>
       <use xlink:href="#DejaVuSans-73" x="191.695312"/>
       <use xlink:href="#DejaVuSans-73" x="243.794922"/>
       <use xlink:href="#DejaVuSans-5f" x="295.894531"/>
       <use xlink:href="#DejaVuSans-6c" x="345.894531"/>
       <use xlink:href="#DejaVuSans-65" x="373.677734"/>
       <use xlink:href="#DejaVuSans-76" x="435.201172"/>
       <use xlink:href="#DejaVuSans-65" x="494.380859"/>
       <use xlink:href="#DejaVuSans-6c" x="555.904297"/>
      </g>
     </g>
    </g>
    <g id="xtick_5">
     <g id="text_5">
      <!-- heart_rate -->
      <g style="fill: #262626" transform="translate(669.672054 269.572031) scale(0.11 -0.11)">
       <use xlink:href="#DejaVuSans-68"/>
       <use xlink:href="#DejaVuSans-65" x="63.378906"/>
       <use xlink:href="#DejaVuSans-61" x="124.902344"/>
       <use xlink:href="#DejaVuSans-72" x="186.181641"/>
       <use xlink:href="#DejaVuSans-74" x="227.294922"/>
       <use xlink:href="#DejaVuSans-5f" x="266.503906"/>
       <use xlink:href="#DejaVuSans-72" x="316.503906"/>
       <use xlink:href="#DejaVuSans-61" x="357.617188"/>
       <use xlink:href="#DejaVuSans-74" x="418.896484"/>
       <use xlink:href="#DejaVuSans-65" x="458.105469"/>
      </g>
     </g>
    </g>
    <g id="xtick_6">
     <g id="text_6">
      <!-- daily_steps -->
      <g style="fill: #262626" transform="translate(814.217154 269.572031) scale(0.11 -0.11)">
       <defs>
        <path id="DejaVuSans-64" d="M 2906 2969 
L 2906 4863 
L 3481 4863 
L 3481 0 
L 2906 0 
L 2906 525 
Q 2725 213 2448 61 
Q 2172 -91 1784 -91 
Q 1150 -91 751 415 
Q 353 922 353 1747 
Q 353 2572 751 3078 
Q 1150 3584 1784 3584 
Q 2172 3584 2448 3432 
Q 2725 3281 2906 2969 
z
M 947 1747 
Q 947 1113 1208 752 
Q 1469 391 1925 391 
Q 2381 391 2643 752 
Q 2906 1113 2906 1747 
Q 2906 2381 2643 2742 
Q 2381 3103 1925 3103 
Q 1469 3103 1208 2742 
Q 947 2381 947 1747 
z
" transform="scale(0.015625)"/>
       </defs>
       <use xlink:href="#DejaVuSans-64"/>
       <use xlink:href="#DejaVuSans-61" x="63.476562"/>
       <use xlink:href="#DejaVuSans-69" x="124.755859"/>
       <use xlink:href="#DejaVuSans-6c" x="152.539062"/>
       <use xlink:href="#DejaVuSans-79" x="180.322266"/>
       <use xlink:href="#DejaVuSans-5f" x="239.501953"/>
       <use xlink:href="#DejaVuSans-73" x="289.501953"/>
       <use xlink:href="#DejaVuSans-74" x="341.601562"/>
       <use xlink:href="#DejaVuSans-65" x="380.810547"/>
       <use xlink:href="#DejaVuSans-70" x="442.333984"/>
       <use xlink:href="#DejaVuSans-73" x="505.810547"/>
      </g>
     </g>
    </g>
    <g id="xtick_7">
     <g id="text_7">
      <!-- sleep_duration -->
      <g style="fill: #262626" transform="translate(951.007254 269.572031) scale(0.11 -0.11)">
       <defs>
        <path id="DejaVuSans-6e" d="M 3513 2113 
L 3513 0 
L 2938 0 
L 2938 2094 
Q 2938 2591 2744 2837 
Q 2550 3084 2163 3084 
Q 1697 3084 1428 2787 
Q 1159 2491 1159 1978 
L 1159 0 
L 581 0 
L 581 3500 
L 1159 3500 
L 1159 2956 
Q 1366 3272 1645 3428 
Q 1925 3584 2291 3584 
Q 2894 3584 3203 3211 
Q 3513 2838 3513 2113 
z
" transform="scale(0.015625)"/>
       </defs>
       <use xlink:href="#DejaVuSans-73"/>
       <use xlink:href="#DejaVuSans-6c" x="52.099609"/>
       <use xlink:href="#DejaVuSans-65" x="79.882812"/>
       <use xlink:href="#DejaVuSans-65" x="141.40625"/>
       <use xlink:href="#DejaVuSans-70" x="202.929688"/>
       <use xlink:href="#DejaVuSans-5f" x="266.40625"/>
       <use xlink:href="#DejaVuSans-64" x="316.40625"/>
       <use xlink:href="#DejaVuSans-75" x="379.882812"/>
       <use xlink:href="#DejaVuSans-72" x="443.261719"/>
       <use xlink:href="#DejaVuSans-61" x="484.375"/>
       <use xlink:href="#DejaVuSans-74" x="545.654297"/>
       <use xlink:href="#DejaVuSans-69" x="584.863281"/>
       <use xlink:href="#DejaVuSans-6f" x="612.646484"/>
       <use xlink:href="#DejaVuSans-6e" x="673.828125"/>
      </g>
     </g>
    </g>
   </g>
   <g id="matplotlib.axis_2">
    <g id="ytick_1">
     <g id="line2d_1">
      <path d="M 38.32 235.446151 
L 1064.88 235.446151 
" clip-path="url(#p18944ccb56)" style="fill: none; stroke: #cbcbcb"/>
     </g>
     <g id="text_8">
      <!-- −3 -->
      <g style="fill: #262626" transform="translate(15.103594 239.625291) scale(0.11 -0.11)">
       <defs>
        <path id="DejaVuSans-2212" d="M 678 2272 
L 4684 2272 
L 4684 1741 
L 678 1741 
L 678 2272 
z
" transform="scale(0.015625)"/>
        <path id="DejaVuSans-33" d="M 2597 2516 
Q 3050 2419 3304 2112 
Q 3559 1806 3559 1356 
Q 3559 666 3084 287 
Q 2609 -91 1734 -91 
Q 1441 -91 1130 -33 
Q 819 25 488 141 
L 488 750 
Q 750 597 1062 519 
Q 1375 441 1716 441 
Q 2309 441 2620 675 
Q 2931 909 2931 1356 
Q 2931 1769 2642 2001 
Q 2353 2234 1838 2234 
L 1294 2234 
L 1294 2753 
L 1863 2753 
Q 2328 2753 2575 2939 
Q 2822 3125 2822 3475 
Q 2822 3834 2567 4026 
Q 2313 4219 1838 4219 
Q 1578 4219 1281 4162 
Q 984 4106 628 3988 
L 628 4550 
Q 988 4650 1302 4700 
Q 1616 4750 1894 4750 
Q 2613 4750 3031 4423 
Q 3450 4097 3450 3541 
Q 3450 3153 3228 2886 
Q 3006 2619 2597 2516 
z
" transform="scale(0.015625)"/>
       </defs>
       <use xlink:href="#DejaVuSans-2212"/>
       <use xlink:href="#DejaVuSans-33" x="83.789062"/>
      </g>
     </g>
    </g>
    <g id="ytick_2">
     <g id="line2d_2">
      <path d="M 38.32 211.081449 
L 1064.88 211.081449 
" clip-path="url(#p18944ccb56)" style="fill: none; stroke: #cbcbcb"/>
     </g>
     <g id="text_9">
      <!-- −2 -->
      <g style="fill: #262626" transform="translate(15.103594 215.26059) scale(0.11 -0.11)">
       <defs>
        <path id="DejaVuSans-32" d="M 1228 531 
L 3431 531 
L 3431 0 
L 469 0 
L 469 531 
Q 828 903 1448 1529 
Q 2069 2156 2228 2338 
Q 2531 2678 2651 2914 
Q 2772 3150 2772 3378 
Q 2772 3750 2511 3984 
Q 2250 4219 1831 4219 
Q 1534 4219 1204 4116 
Q 875 4013 500 3803 
L 500 4441 
Q 881 4594 1212 4672 
Q 1544 4750 1819 4750 
Q 2544 4750 2975 4387 
Q 3406 4025 3406 3419 
Q 3406 3131 3298 2873 
Q 3191 2616 2906 2266 
Q 2828 2175 2409 1742 
Q 1991 1309 1228 531 
z
" transform="scale(0.015625)"/>
       </defs>
       <use xlink:href="#DejaVuSans-2212"/>
       <use xlink:href="#DejaVuSans-32" x="83.789062"/>
      </g>
     </g>
    </g>
    <g id="ytick_3">
     <g id="line2d_3">
      <path d="M 38.32 186.716747 
L 1064.88 186.716747 
" clip-path="url(#p18944ccb56)" style="fill: none; stroke: #cbcbcb"/>
     </g>
     <g id="text_10">
      <!-- −1 -->
      <g style="fill: #262626" transform="translate(15.103594 190.895888) scale(0.11 -0.11)">
       <defs>
        <path id="DejaVuSans-31" d="M 794 531 
L 1825 531 
L 1825 4091 
L 703 3866 
L 703 4441 
L 1819 4666 
L 2450 4666 
L 2450 531 
L 3481 531 
L 3481 0 
L 794 0 
L 794 531 
z
" transform="scale(0.015625)"/>
       </defs>
       <use xlink:href="#DejaVuSans-2212"/>
       <use xlink:href="#DejaVuSans-31" x="83.789062"/>
      </g>
     </g>
    </g>
    <g id="ytick_4">
     <g id="line2d_4">
      <path d="M 38.32 162.352046 
L 1064.88 162.352046 
" clip-path="url(#p18944ccb56)" style="fill: none; stroke: #cbcbcb"/>
     </g>
     <g id="text_11">
      <!-- 0 -->
      <g style="fill: #262626" transform="translate(24.32125 166.531186) scale(0.11 -0.11)">
       <defs>
        <path id="DejaVuSans-30" d="M 2034 4250 
Q 1547 4250 1301 3770 
Q 1056 3291 1056 2328 
Q 1056 1369 1301 889 
Q 1547 409 2034 409 
Q 2525 409 2770 889 
Q 3016 1369 3016 2328 
Q 3016 3291 2770 3770 
Q 2525 4250 2034 4250 
z
M 2034 4750 
Q 2819 4750 3233 4129 
Q 3647 3509 3647 2328 
Q 3647 1150 3233 529 
Q 2819 -91 2034 -91 
Q 1250 -91 836 529 
Q 422 1150 422 2328 
Q 422 3509 836 4129 
Q 1250 4750 2034 4750 
z
" transform="scale(0.015625)"/>
       </defs>
       <use xlink:href="#DejaVuSans-30"/>
      </g>
     </g>
    </g>
    <g id="ytick_5">
     <g id="line2d_5">
      <path d="M 38.32 137.987344 
L 1064.88 137.987344 
" clip-path="url(#p18944ccb56)" style="fill: none; stroke: #cbcbcb"/>
     </g>
     <g id="text_12">
      <!-- 1 -->
      <g style="fill: #262626" transform="translate(24.32125 142.166484) scale(0.11 -0.11)">
       <use xlink:href="#DejaVuSans-31"/>
      </g>
     </g>
    </g>
    <g id="ytick_6">
     <g id="line2d_6">
      <path d="M 38.32 113.622642 
L 1064.88 113.622642 
" clip-path="url(#p18944ccb56)" style="fill: none; stroke: #cbcbcb"/>
     </g>
     <g id="text_13">
      <!-- 2 -->
      <g style="fill: #262626" transform="translate(24.32125 117.801783) scale(0.11 -0.11)">
       <use xlink:href="#DejaVuSans-32"/>
      </g>
     </g>
    </g>
    <g id="ytick_7">
     <g id="line2d_7">
      <path d="M 38.32 89.25794 
L 1064.88 89.25794 
" clip-path="url(#p18944ccb56)" style="fill: none; stroke: #cbcbcb"/>
     </g>
     <g id="text_14">
      <!-- 3 -->
      <g style="fill: #262626" transform="translate(24.32125 93.437081) scale(0.11 -0.11)">
       <use xlink:href="#DejaVuSans-33"/>
      </g>
     </g>
    </g>
    <g id="ytick_8">
     <g id="line2d_8">
      <path d="M 38.32 64.893239 
L 1064.88 64.893239 
" clip-path="url(#p18944ccb56)" style="fill: none; stroke: #cbcbcb"/>
     </g>
     <g id="text_15">
      <!-- 4 -->
      <g style="fill: #262626" transform="translate(24.32125 69.072379) scale(0.11 -0.11)">
       <defs>
        <path id="DejaVuSans-34" d="M 2419 4116 
L 825 1625 
L 2419 1625 
L 2419 4116 
z
M 2253 4666 
L 3047 4666 
L 3047 1625 
L 3713 1625 
L 3713 1100 
L 3047 1100 
L 3047 0 
L 2419 0 
L 2419 1100 
L 313 1100 
L 313 1709 
L 2253 4666 
z
" transform="scale(0.015625)"/>
       </defs>
       <use xlink:href="#DejaVuSans-34"/>
      </g>
     </g>
    </g>
   </g>
   <g id="PolyCollection_1">
    <defs>
     <path id="m9130f941e4" d="M 112.131391 -68.090396 
L 111.160037 -68.090396 
L 110.913388 -69.299457 
L 110.565114 -70.508517 
L 110.085007 -71.717578 
L 109.438867 -72.926638 
L 108.589934 -74.135699 
L 107.501125 -75.344759 
L 106.138041 -76.55382 
L 104.472625 -77.762881 
L 102.487155 -78.971941 
L 100.178177 -80.181002 
L 97.559874 -81.390062 
L 94.66631 -82.599123 
L 91.552074 -83.808183 
L 88.290926 -85.017244 
L 84.972291 -86.226304 
L 81.695648 -87.435365 
L 78.5632 -88.644425 
L 75.671445 -89.853486 
L 73.102501 -91.062546 
L 70.916221 -92.271607 
L 69.1441 -93.480667 
L 67.785923 -94.689728 
L 66.809808 -95.898788 
L 66.155904 -97.107849 
L 65.743508 -98.316909 
L 65.480855 -99.52597 
L 65.276324 -100.73503 
L 65.049533 -101.944091 
L 64.740643 -103.153152 
L 64.316412 -104.362212 
L 63.771973 -105.571273 
L 63.127977 -106.780333 
L 62.423538 -107.989394 
L 61.706174 -109.198454 
L 61.020549 -110.407515 
L 60.398109 -111.616575 
L 59.849668 -112.825636 
L 59.362554 -114.034696 
L 58.903118 -115.243757 
L 58.424463 -116.452817 
L 57.878191 -117.661878 
L 57.228083 -118.870938 
L 56.463101 -120.079999 
L 55.606983 -121.289059 
L 54.72216 -122.49812 
L 53.906615 -123.70718 
L 53.283559 -124.916241 
L 52.985143 -126.125301 
L 53.132653 -127.334362 
L 53.816429 -128.543423 
L 55.078982 -129.752483 
L 56.904385 -130.961544 
L 59.215966 -132.170604 
L 61.882942 -133.379665 
L 64.735083 -134.588725 
L 67.583119 -135.797786 
L 70.241663 -137.006846 
L 72.551131 -138.215907 
L 74.39541 -139.424967 
L 75.712943 -140.634028 
L 76.500089 -141.843088 
L 76.806938 -143.052149 
L 76.7269 -144.261209 
L 76.382173 -145.47027 
L 75.907516 -146.67933 
L 75.434626 -147.888391 
L 75.07893 -149.097451 
L 74.929951 -150.306512 
L 75.0457 -151.515573 
L 75.450981 -152.724633 
L 76.139128 -153.933694 
L 77.076481 -155.142754 
L 78.208919 -156.351815 
L 79.469729 -157.560875 
L 80.788165 -158.769936 
L 82.097975 -159.978996 
L 83.345147 -161.188057 
L 84.494063 -162.397117 
L 85.531311 -163.606178 
L 86.466582 -164.815238 
L 87.330415 -166.024299 
L 88.168999 -167.233359 
L 89.036731 -168.44242 
L 89.987608 -169.65148 
L 91.066777 -170.860541 
L 92.30355 -172.069601 
L 93.706946 -173.278662 
L 95.264357 -174.487722 
L 96.943393 -175.696783 
L 98.696427 -176.905844 
L 100.466921 -178.114904 
L 102.19641 -179.323965 
L 103.83105 -180.533025 
L 105.326789 -181.742086 
L 106.652636 -182.951146 
L 107.791838 -184.160207 
L 108.741182 -185.369267 
L 109.508861 -186.578328 
L 110.111505 -187.787388 
L 113.179924 -187.787388 
L 113.179924 -187.787388 
L 113.782567 -186.578328 
L 114.550246 -185.369267 
L 115.49959 -184.160207 
L 116.638793 -182.951146 
L 117.964639 -181.742086 
L 119.460379 -180.533025 
L 121.095019 -179.323965 
L 122.824508 -178.114904 
L 124.595001 -176.905844 
L 126.348036 -175.696783 
L 128.027072 -174.487722 
L 129.584482 -173.278662 
L 130.987878 -172.069601 
L 132.224652 -170.860541 
L 133.303821 -169.65148 
L 134.254698 -168.44242 
L 135.12243 -167.233359 
L 135.961014 -166.024299 
L 136.824846 -164.815238 
L 137.760118 -163.606178 
L 138.797366 -162.397117 
L 139.946282 -161.188057 
L 141.193454 -159.978996 
L 142.503264 -158.769936 
L 143.8217 -157.560875 
L 145.08251 -156.351815 
L 146.214948 -155.142754 
L 147.152301 -153.933694 
L 147.840447 -152.724633 
L 148.245729 -151.515573 
L 148.361478 -150.306512 
L 148.212499 -149.097451 
L 147.856802 -147.888391 
L 147.383912 -146.67933 
L 146.909256 -145.47027 
L 146.564529 -144.261209 
L 146.484491 -143.052149 
L 146.791339 -141.843088 
L 147.578485 -140.634028 
L 148.896018 -139.424967 
L 150.740297 -138.215907 
L 153.049765 -137.006846 
L 155.70831 -135.797786 
L 158.556345 -134.588725 
L 161.408487 -133.379665 
L 164.075463 -132.170604 
L 166.387044 -130.961544 
L 168.212447 -129.752483 
L 169.475 -128.543423 
L 170.158775 -127.334362 
L 170.306286 -126.125301 
L 170.00787 -124.916241 
L 169.384813 -123.70718 
L 168.569268 -122.49812 
L 167.684445 -121.289059 
L 166.828328 -120.079999 
L 166.063346 -118.870938 
L 165.413238 -117.661878 
L 164.866966 -116.452817 
L 164.388311 -115.243757 
L 163.928874 -114.034696 
L 163.44176 -112.825636 
L 162.89332 -111.616575 
L 162.270879 -110.407515 
L 161.585254 -109.198454 
L 160.867891 -107.989394 
L 160.163452 -106.780333 
L 159.519456 -105.571273 
L 158.975017 -104.362212 
L 158.550786 -103.153152 
L 158.241895 -101.944091 
L 158.015104 -100.73503 
L 157.810574 -99.52597 
L 157.54792 -98.316909 
L 157.135525 -97.107849 
L 156.481621 -95.898788 
L 155.505506 -94.689728 
L 154.147329 -93.480667 
L 152.375207 -92.271607 
L 150.188927 -91.062546 
L 147.619984 -89.853486 
L 144.728228 -88.644425 
L 141.595781 -87.435365 
L 138.319138 -86.226304 
L 135.000503 -85.017244 
L 131.739355 -83.808183 
L 128.625118 -82.599123 
L 125.731554 -81.390062 
L 123.113251 -80.181002 
L 120.804274 -78.971941 
L 118.818803 -77.762881 
L 117.153387 -76.55382 
L 115.790304 -75.344759 
L 114.701494 -74.135699 
L 113.852562 -72.926638 
L 113.206422 -71.717578 
L 112.726314 -70.508517 
L 112.37804 -69.299457 
L 112.131391 -68.090396 
z
" style="stroke: #3e3e3e; stroke-width: 3"/>
    </defs>
    <g clip-path="url(#p18944ccb56)">
     <use xlink:href="#m9130f941e4" x="0" y="288" style="fill: #cb3335; stroke: #3e3e3e; stroke-width: 3"/>
    </g>
   </g>
   <g id="PolyCollection_2">
    <defs>
     <path id="mfe8b1fb4aa" d="M 258.650751 -43.31233 
L 257.943535 -43.31233 
L 257.799867 -44.641419 
L 257.619694 -45.970509 
L 257.403066 -47.299598 
L 257.153957 -48.628688 
L 256.880881 -49.957777 
L 256.596865 -51.286867 
L 256.318567 -52.615956 
L 256.064528 -53.945046 
L 255.852693 -55.274136 
L 255.69758 -56.603225 
L 255.607595 -57.932315 
L 255.583035 -59.261404 
L 255.61526 -60.590494 
L 255.687299 -61.919583 
L 255.775901 -63.248673 
L 255.854743 -64.577763 
L 255.898295 -65.906852 
L 255.885645 -67.235942 
L 255.803557 -68.565031 
L 255.648081 -69.894121 
L 255.424166 -71.22321 
L 255.142995 -72.5523 
L 254.817023 -73.881389 
L 254.453138 -75.210479 
L 254.044717 -76.539569 
L 253.563814 -77.868658 
L 252.955029 -79.197748 
L 252.132852 -80.526837 
L 250.98422 -81.855927 
L 249.377636 -83.185016 
L 247.179418 -84.514106 
L 244.276329 -85.843196 
L 240.602244 -87.172285 
L 236.164806 -88.501375 
L 231.066675 -89.830464 
L 225.515512 -91.159554 
L 219.817721 -92.488643 
L 214.353372 -93.817733 
L 209.533375 -95.146823 
L 205.7442 -96.475912 
L 203.289037 -97.805002 
L 202.336383 -99.134091 
L 202.886591 -100.463181 
L 204.764059 -101.79227 
L 207.637894 -103.12136 
L 211.06828 -104.450449 
L 214.570788 -105.779539 
L 217.687534 -107.108629 
L 220.053096 -108.437718 
L 221.444389 -109.766808 
L 221.806785 -111.095897 
L 221.252907 -112.424987 
L 220.03494 -113.754076 
L 218.495401 -115.083166 
L 217.004538 -116.412256 
L 215.894547 -117.741345 
L 215.401271 -119.070435 
L 215.622927 -120.399524 
L 216.502662 -121.728614 
L 217.837874 -123.057703 
L 219.314835 -124.386793 
L 220.562981 -125.715882 
L 221.220053 -127.044972 
L 220.997507 -128.374062 
L 219.735493 -129.703151 
L 217.43819 -131.032241 
L 214.28315 -132.36133 
L 210.602197 -133.69042 
L 206.835928 -135.019509 
L 203.468366 -136.348599 
L 200.952121 -137.677689 
L 199.636571 -139.006778 
L 199.711644 -140.335868 
L 201.177292 -141.664957 
L 203.844203 -142.994047 
L 207.365518 -144.323136 
L 211.2936 -145.652226 
L 215.151535 -146.981315 
L 218.50683 -148.310405 
L 221.035065 -149.639495 
L 222.563705 -150.968584 
L 223.090172 -152.297674 
L 222.772804 -153.626763 
L 221.89764 -154.955853 
L 220.82758 -156.284942 
L 219.942856 -157.614032 
L 219.58271 -158.943122 
L 219.997518 -160.272211 
L 221.318427 -161.601301 
L 223.548165 -162.93039 
L 226.572712 -164.25948 
L 230.189741 -165.588569 
L 234.147047 -166.917659 
L 238.18308 -168.246748 
L 242.06234 -169.575838 
L 245.600506 -170.904928 
L 248.67702 -172.234017 
L 251.235666 -173.563107 
L 253.275836 -174.892196 
L 263.31845 -174.892196 
L 263.31845 -174.892196 
L 265.35862 -173.563107 
L 267.917265 -172.234017 
L 270.99378 -170.904928 
L 274.531946 -169.575838 
L 278.411206 -168.246748 
L 282.447239 -166.917659 
L 286.404545 -165.588569 
L 290.021574 -164.25948 
L 293.046121 -162.93039 
L 295.275859 -161.601301 
L 296.596768 -160.272211 
L 297.011576 -158.943122 
L 296.65143 -157.614032 
L 295.766706 -156.284942 
L 294.696645 -154.955853 
L 293.821481 -153.626763 
L 293.504114 -152.297674 
L 294.030581 -150.968584 
L 295.559221 -149.639495 
L 298.087456 -148.310405 
L 301.442751 -146.981315 
L 305.300686 -145.652226 
L 309.228768 -144.323136 
L 312.750083 -142.994047 
L 315.416994 -141.664957 
L 316.882641 -140.335868 
L 316.957714 -139.006778 
L 315.642165 -137.677689 
L 313.12592 -136.348599 
L 309.758358 -135.019509 
L 305.992088 -133.69042 
L 302.311136 -132.36133 
L 299.156096 -131.032241 
L 296.858792 -129.703151 
L 295.596778 -128.374062 
L 295.374233 -127.044972 
L 296.031305 -125.715882 
L 297.27945 -124.386793 
L 298.756411 -123.057703 
L 300.091624 -121.728614 
L 300.971359 -120.399524 
L 301.193015 -119.070435 
L 300.699739 -117.741345 
L 299.589748 -116.412256 
L 298.098885 -115.083166 
L 296.559346 -113.754076 
L 295.341378 -112.424987 
L 294.7875 -111.095897 
L 295.149897 -109.766808 
L 296.54119 -108.437718 
L 298.906752 -107.108629 
L 302.023498 -105.779539 
L 305.526006 -104.450449 
L 308.956391 -103.12136 
L 311.830226 -101.79227 
L 313.707695 -100.463181 
L 314.257903 -99.134091 
L 313.305249 -97.805002 
L 310.850086 -96.475912 
L 307.06091 -95.146823 
L 302.240914 -93.817733 
L 296.776564 -92.488643 
L 291.078774 -91.159554 
L 285.527611 -89.830464 
L 280.42948 -88.501375 
L 275.992042 -87.172285 
L 272.317956 -85.843196 
L 269.414867 -84.514106 
L 267.21665 -83.185016 
L 265.610066 -81.855927 
L 264.461434 -80.526837 
L 263.639257 -79.197748 
L 263.030472 -77.868658 
L 262.549568 -76.539569 
L 262.141148 -75.210479 
L 261.777263 -73.881389 
L 261.451291 -72.5523 
L 261.17012 -71.22321 
L 260.946205 -69.894121 
L 260.790728 -68.565031 
L 260.708641 -67.235942 
L 260.69599 -65.906852 
L 260.739543 -64.577763 
L 260.818385 -63.248673 
L 260.906986 -61.919583 
L 260.979026 -60.590494 
L 261.011251 -59.261404 
L 260.98669 -57.932315 
L 260.896705 -56.603225 
L 260.741593 -55.274136 
L 260.529758 -53.945046 
L 260.275719 -52.615956 
L 259.997421 -51.286867 
L 259.713404 -49.957777 
L 259.440329 -48.628688 
L 259.191219 -47.299598 
L 258.974592 -45.970509 
L 258.794419 -44.641419 
L 258.650751 -43.31233 
z
" style="stroke: #3e3e3e; stroke-width: 3"/>
    </defs>
    <g clip-path="url(#p18944ccb56)">
     <use xlink:href="#mfe8b1fb4aa" x="0" y="288" style="fill: #477ca8; stroke: #3e3e3e; stroke-width: 3"/>
    </g>
   </g>
   <g id="PolyCollection_3">
    <defs>
     <path id="m86c9467a4f" d="M 411.107326 -76.626971 
L 398.789817 -76.626971 
L 396.92889 -77.636879 
L 394.692905 -78.646788 
L 392.067903 -79.656697 
L 389.058986 -80.666605 
L 385.694293 -81.676514 
L 382.027501 -82.686423 
L 378.13817 -83.696331 
L 374.129447 -84.70624 
L 370.122871 -85.716149 
L 366.250425 -86.726057 
L 362.644364 -87.735966 
L 359.425753 -88.745874 
L 356.692974 -89.755783 
L 354.511597 -90.765692 
L 352.907008 -91.7756 
L 351.860934 -92.785509 
L 351.312574 -93.795418 
L 351.1645 -94.805326 
L 351.292833 -95.815235 
L 351.56064 -96.825144 
L 351.833005 -97.835052 
L 351.99196 -98.844961 
L 351.949421 -99.85487 
L 351.656497 -100.864778 
L 351.107965 -101.874687 
L 350.341319 -102.884595 
L 349.430489 -103.894504 
L 348.475021 -104.904413 
L 347.586085 -105.914321 
L 346.871109 -106.92423 
L 346.419021 -107.934139 
L 346.288 -108.944047 
L 346.497314 -109.953956 
L 347.024321 -110.963865 
L 347.806994 -111.973773 
L 348.751658 -112.983682 
L 349.744919 -113.99359 
L 350.668235 -115.003499 
L 351.413232 -116.013408 
L 351.89577 -117.023316 
L 352.066936 -118.033225 
L 351.919522 -119.043134 
L 351.48913 -120.053042 
L 350.849752 -121.062951 
L 350.104366 -122.07286 
L 349.371743 -123.082768 
L 348.771148 -124.092677 
L 348.406911 -125.102586 
L 348.354838 -126.112494 
L 348.65225 -127.122403 
L 349.292909 -128.132311 
L 350.227538 -129.14222 
L 351.369836 -130.152129 
L 352.607263 -131.162037 
L 353.815175 -132.171946 
L 354.872518 -133.181855 
L 355.677061 -134.191763 
L 356.158211 -135.201672 
L 356.285786 -136.211581 
L 356.073615 -137.221489 
L 355.577533 -138.231398 
L 354.888014 -139.241307 
L 354.118422 -140.251215 
L 353.390369 -141.261124 
L 352.818086 -142.271032 
L 352.49381 -143.280941 
L 352.476067 -144.29085 
L 352.782371 -145.300758 
L 353.387273 -146.310667 
L 354.226012 -147.320576 
L 355.203316 -148.330484 
L 356.206205 -149.340393 
L 357.119179 -150.350302 
L 357.83985 -151.36021 
L 358.293046 -152.370119 
L 358.4416 -153.380028 
L 358.292506 -154.389936 
L 357.897679 -155.399845 
L 357.34927 -156.409753 
L 356.770158 -157.419662 
L 356.300837 -158.429571 
L 356.084331 -159.439479 
L 356.250991 -160.449388 
L 356.904965 -161.459297 
L 358.113867 -162.469205 
L 359.902705 -163.479114 
L 362.252548 -164.489023 
L 365.10378 -165.498931 
L 368.363256 -166.50884 
L 371.914233 -167.518749 
L 375.627716 -168.528657 
L 379.373828 -169.538566 
L 383.031971 -170.548474 
L 386.498837 -171.558383 
L 389.693721 -172.568292 
L 392.561006 -173.5782 
L 395.070016 -174.588109 
L 397.212737 -175.598018 
L 399.000044 -176.607926 
L 410.897099 -176.607926 
L 410.897099 -176.607926 
L 412.684406 -175.598018 
L 414.827127 -174.588109 
L 417.336137 -173.5782 
L 420.203422 -172.568292 
L 423.398306 -171.558383 
L 426.865171 -170.548474 
L 430.523315 -169.538566 
L 434.269427 -168.528657 
L 437.98291 -167.518749 
L 441.533887 -166.50884 
L 444.793363 -165.498931 
L 447.644595 -164.489023 
L 449.994438 -163.479114 
L 451.783276 -162.469205 
L 452.992178 -161.459297 
L 453.646152 -160.449388 
L 453.812812 -159.439479 
L 453.596306 -158.429571 
L 453.126984 -157.419662 
L 452.547873 -156.409753 
L 451.999464 -155.399845 
L 451.604637 -154.389936 
L 451.455543 -153.380028 
L 451.604097 -152.370119 
L 452.057292 -151.36021 
L 452.777964 -150.350302 
L 453.690938 -149.340393 
L 454.693827 -148.330484 
L 455.671131 -147.320576 
L 456.50987 -146.310667 
L 457.114771 -145.300758 
L 457.421076 -144.29085 
L 457.403333 -143.280941 
L 457.079057 -142.271032 
L 456.506774 -141.261124 
L 455.778721 -140.251215 
L 455.009129 -139.241307 
L 454.31961 -138.231398 
L 453.823528 -137.221489 
L 453.611357 -136.211581 
L 453.738932 -135.201672 
L 454.220082 -134.191763 
L 455.024625 -133.181855 
L 456.081968 -132.171946 
L 457.28988 -131.162037 
L 458.527307 -130.152129 
L 459.669605 -129.14222 
L 460.604233 -128.132311 
L 461.244893 -127.122403 
L 461.542304 -126.112494 
L 461.490232 -125.102586 
L 461.125995 -124.092677 
L 460.5254 -123.082768 
L 459.792777 -122.07286 
L 459.047391 -121.062951 
L 458.408013 -120.053042 
L 457.97762 -119.043134 
L 457.830206 -118.033225 
L 458.001373 -117.023316 
L 458.483911 -116.013408 
L 459.228908 -115.003499 
L 460.152224 -113.99359 
L 461.145485 -112.983682 
L 462.090149 -111.973773 
L 462.872822 -110.963865 
L 463.399828 -109.953956 
L 463.609143 -108.944047 
L 463.478121 -107.934139 
L 463.026034 -106.92423 
L 462.311058 -105.914321 
L 461.422122 -104.904413 
L 460.466654 -103.894504 
L 459.555824 -102.884595 
L 458.789178 -101.874687 
L 458.240646 -100.864778 
L 457.947722 -99.85487 
L 457.905183 -98.844961 
L 458.064138 -97.835052 
L 458.336503 -96.825144 
L 458.60431 -95.815235 
L 458.732643 -94.805326 
L 458.584569 -93.795418 
L 458.036209 -92.785509 
L 456.990135 -91.7756 
L 455.385546 -90.765692 
L 453.204169 -89.755783 
L 450.47139 -88.745874 
L 447.252779 -87.735966 
L 443.646718 -86.726057 
L 439.774272 -85.716149 
L 435.767696 -84.70624 
L 431.758973 -83.696331 
L 427.869642 -82.686423 
L 424.20285 -81.676514 
L 420.838157 -80.666605 
L 417.82924 -79.656697 
L 415.204238 -78.646788 
L 412.968252 -77.636879 
L 411.107326 -76.626971 
z
" style="stroke: #3e3e3e; stroke-width: 3"/>
    </defs>
    <g clip-path="url(#p18944ccb56)">
     <use xlink:href="#m86c9467a4f" x="0" y="288" style="fill: #59a257; stroke: #3e3e3e; stroke-width: 3"/>
    </g>
   </g>
   <g id="PolyCollection_4">
    <defs>
     <path id="mbb0585c54f" d="M 557.536101 -77.999881 
L 545.663899 -77.999881 
L 543.906655 -78.99436 
L 541.801877 -79.988838 
L 539.336179 -80.983317 
L 536.512517 -81.977795 
L 533.353366 -82.972274 
L 529.902567 -83.966752 
L 526.225338 -84.961231 
L 522.406078 -85.955709 
L 518.543856 -86.950188 
L 514.745782 -87.944666 
L 511.118821 -88.939145 
L 507.760898 -89.933623 
L 504.752383 -90.928102 
L 502.149081 -91.92258 
L 499.977764 -92.917059 
L 498.234973 -93.911537 
L 496.889354 -94.906016 
L 495.887299 -95.900494 
L 495.161098 -96.894972 
L 494.638422 -97.889451 
L 494.25171 -98.883929 
L 493.946034 -99.878408 
L 493.684286 -100.872886 
L 493.448975 -101.867365 
L 493.240544 -102.861843 
L 493.072689 -103.856322 
L 492.965738 -104.8508 
L 492.939429 -105.845279 
L 493.00652 -106.839757 
L 493.168467 -107.834236 
L 493.413951 -108.828714 
L 493.720488 -109.823193 
L 494.058701 -110.817671 
L 494.39834 -111.81215 
L 494.714783 -112.806628 
L 494.994645 -113.801107 
L 495.239343 -114.795585 
L 495.465848 -115.790064 
L 495.704423 -116.784542 
L 495.993737 -117.779021 
L 496.374254 -118.773499 
L 496.881121 -119.767978 
L 497.537859 -120.762456 
L 498.352005 -121.756935 
L 499.313441 -122.751413 
L 500.395648 -123.745892 
L 501.559558 -124.74037 
L 502.759214 -125.734849 
L 503.94814 -126.729327 
L 505.085237 -127.723806 
L 506.139202 -128.718284 
L 507.090769 -129.712763 
L 507.932562 -130.707241 
L 508.666828 -131.70172 
L 509.301706 -132.696198 
L 509.84695 -133.690677 
L 510.310074 -134.685155 
L 510.693726 -135.679634 
L 510.994785 -136.674112 
L 511.20526 -137.668591 
L 511.314679 -138.663069 
L 511.313306 -139.657548 
L 511.195357 -140.652026 
L 510.961412 -141.646505 
L 510.619406 -142.640983 
L 510.183919 -143.635462 
L 509.673898 -144.62994 
L 509.109314 -145.624419 
L 508.507557 -146.618897 
L 507.880454 -147.613376 
L 507.232741 -148.607854 
L 506.562526 -149.602333 
L 505.863884 -150.596811 
L 505.131268 -151.59129 
L 504.364999 -152.585768 
L 503.576796 -153.580247 
L 502.794202 -154.574725 
L 502.062899 -155.569204 
L 501.446171 -156.563682 
L 501.02129 -157.558161 
L 500.873092 -158.552639 
L 501.085515 -159.547118 
L 501.73223 -160.541596 
L 502.867701 -161.536075 
L 504.519924 -162.530553 
L 506.685886 -163.525032 
L 509.330354 -164.51951 
L 512.388114 -165.513989 
L 515.769298 -166.508467 
L 519.367016 -167.502946 
L 523.066281 -168.497424 
L 526.753097 -169.491903 
L 530.322673 -170.486381 
L 533.685968 -171.48086 
L 536.774058 -172.475338 
L 539.540158 -173.469817 
L 541.959439 -174.464295 
L 544.02704 -175.458774 
L 545.754772 -176.453252 
L 557.445228 -176.453252 
L 557.445228 -176.453252 
L 559.17296 -175.458774 
L 561.240561 -174.464295 
L 563.659842 -173.469817 
L 566.425942 -172.475338 
L 569.514032 -171.48086 
L 572.877327 -170.486381 
L 576.446903 -169.491903 
L 580.133719 -168.497424 
L 583.832984 -167.502946 
L 587.430702 -166.508467 
L 590.811886 -165.513989 
L 593.869646 -164.51951 
L 596.514114 -163.525032 
L 598.680076 -162.530553 
L 600.332299 -161.536075 
L 601.46777 -160.541596 
L 602.114485 -159.547118 
L 602.326908 -158.552639 
L 602.17871 -157.558161 
L 601.753829 -156.563682 
L 601.137101 -155.569204 
L 600.405798 -154.574725 
L 599.623204 -153.580247 
L 598.835001 -152.585768 
L 598.068732 -151.59129 
L 597.336116 -150.596811 
L 596.637474 -149.602333 
L 595.967259 -148.607854 
L 595.319546 -147.613376 
L 594.692443 -146.618897 
L 594.090686 -145.624419 
L 593.526102 -144.62994 
L 593.016081 -143.635462 
L 592.580594 -142.640983 
L 592.238588 -141.646505 
L 592.004643 -140.652026 
L 591.886694 -139.657548 
L 591.885321 -138.663069 
L 591.99474 -137.668591 
L 592.205215 -136.674112 
L 592.506274 -135.679634 
L 592.889926 -134.685155 
L 593.35305 -133.690677 
L 593.898294 -132.696198 
L 594.533172 -131.70172 
L 595.267438 -130.707241 
L 596.109231 -129.712763 
L 597.060798 -128.718284 
L 598.114763 -127.723806 
L 599.25186 -126.729327 
L 600.440786 -125.734849 
L 601.640442 -124.74037 
L 602.804352 -123.745892 
L 603.886559 -122.751413 
L 604.847995 -121.756935 
L 605.662141 -120.762456 
L 606.318879 -119.767978 
L 606.825746 -118.773499 
L 607.206263 -117.779021 
L 607.495577 -116.784542 
L 607.734152 -115.790064 
L 607.960657 -114.795585 
L 608.205355 -113.801107 
L 608.485217 -112.806628 
L 608.80166 -111.81215 
L 609.141299 -110.817671 
L 609.479512 -109.823193 
L 609.786049 -108.828714 
L 610.031533 -107.834236 
L 610.19348 -106.839757 
L 610.260571 -105.845279 
L 610.234262 -104.8508 
L 610.127311 -103.856322 
L 609.959456 -102.861843 
L 609.751025 -101.867365 
L 609.515714 -100.872886 
L 609.253966 -99.878408 
L 608.94829 -98.883929 
L 608.561578 -97.889451 
L 608.038902 -96.894972 
L 607.312701 -95.900494 
L 606.310646 -94.906016 
L 604.965027 -93.911537 
L 603.222236 -92.917059 
L 601.050919 -91.92258 
L 598.447617 -90.928102 
L 595.439102 -89.933623 
L 592.081179 -88.939145 
L 588.454218 -87.944666 
L 584.656144 -86.950188 
L 580.793922 -85.955709 
L 576.974662 -84.961231 
L 573.297433 -83.966752 
L 569.846634 -82.972274 
L 566.687483 -81.977795 
L 563.863821 -80.983317 
L 561.398123 -79.988838 
L 559.293345 -78.99436 
L 557.536101 -77.999881 
z
" style="stroke: #3e3e3e; stroke-width: 3"/>
    </defs>
    <g clip-path="url(#p18944ccb56)">
     <use xlink:href="#mbb0585c54f" x="0" y="288" style="fill: #905998; stroke: #3e3e3e; stroke-width: 3"/>
    </g>
   </g>
   <g id="PolyCollection_5">
    <defs>
     <path id="m030aa12f21" d="M 702.296361 -80.31353 
L 694.206496 -80.31353 
L 692.245891 -81.864241 
L 689.709969 -83.414952 
L 686.611687 -84.965663 
L 683.04831 -86.516374 
L 679.208393 -88.067085 
L 675.356891 -89.617796 
L 671.795574 -91.168507 
L 668.803507 -92.719218 
L 666.57043 -94.269929 
L 665.141313 -95.82064 
L 664.390479 -97.371351 
L 664.037341 -98.922062 
L 663.704422 -100.472773 
L 663.005246 -102.023484 
L 661.63942 -103.574195 
L 659.468406 -105.124906 
L 656.550109 -106.675617 
L 653.122152 -108.226328 
L 649.539297 -109.777039 
L 646.184508 -111.32775 
L 643.380753 -112.878461 
L 641.328996 -114.429172 
L 640.087306 -115.979883 
L 639.590857 -117.530594 
L 639.698823 -119.081305 
L 640.247395 -120.632016 
L 641.090584 -122.182727 
L 642.120092 -123.733438 
L 643.266991 -125.284149 
L 644.495193 -126.83486 
L 645.796771 -128.385571 
L 647.192888 -129.936282 
L 648.736154 -131.486993 
L 650.505758 -133.037704 
L 652.588752 -134.588415 
L 655.048302 -136.139126 
L 657.888401 -137.689837 
L 661.029471 -139.240548 
L 664.307472 -140.791259 
L 667.501119 -142.34197 
L 670.381139 -143.892682 
L 672.766857 -145.443393 
L 674.572255 -146.994104 
L 675.827092 -148.544815 
L 676.666985 -150.095526 
L 677.296238 -151.646237 
L 677.935255 -153.196948 
L 678.768007 -154.747659 
L 679.903691 -156.29837 
L 681.361173 -157.849081 
L 683.0774 -159.399792 
L 684.93414 -160.950503 
L 686.793156 -162.501214 
L 688.529294 -164.051925 
L 690.053469 -165.602636 
L 691.321955 -167.153347 
L 692.332899 -168.704058 
L 693.114263 -170.254769 
L 693.708703 -171.80548 
L 694.16023 -173.356191 
L 694.505659 -174.906902 
L 694.771543 -176.457613 
L 694.975473 -178.008324 
L 695.129583 -179.559035 
L 695.244117 -181.109746 
L 695.329541 -182.660457 
L 695.396746 -184.211168 
L 695.455738 -185.761879 
L 695.51378 -187.31259 
L 695.57394 -188.863301 
L 695.634716 -190.414012 
L 695.690862 -191.964723 
L 695.735112 -193.515434 
L 695.760227 -195.066145 
L 695.760821 -196.616856 
L 695.734542 -198.167567 
L 695.682523 -199.718278 
L 695.609191 -201.268989 
L 695.521708 -202.8197 
L 695.429275 -204.370411 
L 695.342453 -205.921122 
L 695.272519 -207.471833 
L 695.230759 -209.022544 
L 695.227613 -210.573255 
L 695.271618 -212.123966 
L 695.368285 -213.674677 
L 695.519072 -215.225388 
L 695.720761 -216.776099 
L 695.965434 -218.32681 
L 696.24117 -219.877521 
L 696.533389 -221.428232 
L 696.826634 -222.978943 
L 697.106437 -224.529654 
L 697.360936 -226.080365 
L 697.581961 -227.631076 
L 697.765424 -229.181787 
L 697.911066 -230.732498 
L 698.02168 -232.283209 
L 698.102071 -233.83392 
L 698.400786 -233.83392 
L 698.400786 -233.83392 
L 698.481177 -232.283209 
L 698.591791 -230.732498 
L 698.737433 -229.181787 
L 698.920897 -227.631076 
L 699.141921 -226.080365 
L 699.39642 -224.529654 
L 699.676223 -222.978943 
L 699.969468 -221.428232 
L 700.261687 -219.877521 
L 700.537423 -218.32681 
L 700.782096 -216.776099 
L 700.983785 -215.225388 
L 701.134572 -213.674677 
L 701.231239 -212.123966 
L 701.275245 -210.573255 
L 701.272098 -209.022544 
L 701.230339 -207.471833 
L 701.160404 -205.921122 
L 701.073582 -204.370411 
L 700.981149 -202.8197 
L 700.893666 -201.268989 
L 700.820334 -199.718278 
L 700.768315 -198.167567 
L 700.742036 -196.616856 
L 700.74263 -195.066145 
L 700.767745 -193.515434 
L 700.811995 -191.964723 
L 700.868141 -190.414012 
L 700.928918 -188.863301 
L 700.989077 -187.31259 
L 701.047119 -185.761879 
L 701.106112 -184.211168 
L 701.173316 -182.660457 
L 701.258741 -181.109746 
L 701.373274 -179.559035 
L 701.527384 -178.008324 
L 701.731314 -176.457613 
L 701.997199 -174.906902 
L 702.342627 -173.356191 
L 702.794154 -171.80548 
L 703.388594 -170.254769 
L 704.169958 -168.704058 
L 705.180902 -167.153347 
L 706.449389 -165.602636 
L 707.973564 -164.051925 
L 709.709701 -162.501214 
L 711.568717 -160.950503 
L 713.425457 -159.399792 
L 715.141684 -157.849081 
L 716.599166 -156.29837 
L 717.73485 -154.747659 
L 718.567602 -153.196948 
L 719.206619 -151.646237 
L 719.835873 -150.095526 
L 720.675765 -148.544815 
L 721.930602 -146.994104 
L 723.736 -145.443393 
L 726.121718 -143.892682 
L 729.001738 -142.34197 
L 732.195385 -140.791259 
L 735.473386 -139.240548 
L 738.614456 -137.689837 
L 741.454555 -136.139126 
L 743.914105 -134.588415 
L 745.997099 -133.037704 
L 747.766703 -131.486993 
L 749.309969 -129.936282 
L 750.706086 -128.385571 
L 752.007664 -126.83486 
L 753.235866 -125.284149 
L 754.382765 -123.733438 
L 755.412273 -122.182727 
L 756.255462 -120.632016 
L 756.804034 -119.081305 
L 756.912 -117.530594 
L 756.415551 -115.979883 
L 755.173861 -114.429172 
L 753.122105 -112.878461 
L 750.318349 -111.32775 
L 746.96356 -109.777039 
L 743.380705 -108.226328 
L 739.952748 -106.675617 
L 737.034451 -105.124906 
L 734.863438 -103.574195 
L 733.497611 -102.023484 
L 732.798435 -100.472773 
L 732.465516 -98.922062 
L 732.112378 -97.371351 
L 731.361545 -95.82064 
L 729.932428 -94.269929 
L 727.69935 -92.719218 
L 724.707283 -91.168507 
L 721.145966 -89.617796 
L 717.294464 -88.067085 
L 713.454547 -86.516374 
L 709.89117 -84.965663 
L 706.792888 -83.414952 
L 704.256966 -81.864241 
L 702.296361 -80.31353 
z
" style="stroke: #3e3e3e; stroke-width: 3"/>
    </defs>
    <g clip-path="url(#p18944ccb56)">
     <use xlink:href="#m030aa12f21" x="0" y="288" style="fill: #df7f20; stroke: #3e3e3e; stroke-width: 3"/>
    </g>
   </g>
   <g id="PolyCollection_6">
    <defs>
     <path id="m64239030d0" d="M 845.165561 -53.267838 
L 844.640154 -53.267838 
L 844.517907 -54.63367 
L 844.354902 -55.999501 
L 844.144687 -57.365332 
L 843.88242 -58.731163 
L 843.565769 -60.096995 
L 843.195655 -61.462826 
L 842.776654 -62.828657 
L 842.316964 -64.194489 
L 841.827848 -65.56032 
L 841.322596 -66.926151 
L 840.815106 -68.291982 
L 840.318197 -69.657814 
L 839.841773 -71.023645 
L 839.390899 -72.389476 
L 838.963755 -73.755308 
L 838.549437 -75.121139 
L 838.125607 -76.48697 
L 837.656219 -77.852801 
L 837.089829 -79.218633 
L 836.359415 -80.584464 
L 835.384862 -81.950295 
L 834.079263 -83.316127 
L 832.35968 -84.681958 
L 830.161957 -86.047789 
L 827.457757 -87.41362 
L 824.27045 -88.779452 
L 820.685511 -90.145283 
L 816.851117 -91.511114 
L 812.966094 -92.876946 
L 809.255143 -94.242777 
L 805.934834 -95.608608 
L 803.177096 -96.974439 
L 801.078788 -98.340271 
L 799.645486 -99.706102 
L 798.794636 -101.071933 
L 798.378343 -102.437765 
L 798.220646 -103.803596 
L 798.159744 -105.169427 
L 798.083948 -106.535258 
L 797.951578 -107.90109 
L 797.789589 -109.266921 
L 797.671909 -110.632752 
L 797.684489 -111.998584 
L 797.888065 -113.364415 
L 798.290219 -114.730246 
L 798.835379 -116.096078 
L 799.415692 -117.461909 
L 799.899096 -118.82774 
L 800.165456 -120.193571 
L 800.139035 -121.559403 
L 799.806794 -122.925234 
L 799.216571 -124.291065 
L 798.455826 -125.656897 
L 797.618073 -127.022728 
L 796.768454 -128.388559 
L 795.920576 -129.75439 
L 795.033432 -131.120222 
L 794.031011 -132.486053 
L 792.839779 -133.851884 
L 791.433053 -135.217716 
L 789.868338 -136.583547 
L 788.304891 -137.949378 
L 786.994025 -139.315209 
L 786.242286 -140.681041 
L 786.355393 -142.046872 
L 787.576432 -143.412703 
L 790.033425 -144.778535 
L 793.70883 -146.144366 
L 798.43749 -147.510197 
L 803.932171 -148.876028 
L 809.829142 -150.24186 
L 815.74232 -151.607691 
L 821.31396 -152.973522 
L 826.252597 -154.339354 
L 830.35358 -155.705185 
L 833.502589 -157.071016 
L 835.666394 -158.436847 
L 836.877021 -159.802679 
L 837.215254 -161.16851 
L 836.797469 -162.534341 
L 835.767146 -163.900173 
L 834.289909 -165.266004 
L 832.549347 -166.631835 
L 830.740635 -167.997666 
L 829.059942 -169.363498 
L 827.689463 -170.729329 
L 826.779959 -172.09516 
L 826.434152 -173.460992 
L 826.694884 -174.826823 
L 827.541144 -176.192654 
L 828.8934 -177.558485 
L 830.627449 -178.924317 
L 832.594038 -180.290148 
L 834.640328 -181.655979 
L 836.629155 -183.021811 
L 838.452979 -184.387642 
L 840.040928 -185.753473 
L 841.359042 -187.119305 
L 842.405167 -188.485136 
L 847.400547 -188.485136 
L 847.400547 -188.485136 
L 848.446672 -187.119305 
L 849.764787 -185.753473 
L 851.352735 -184.387642 
L 853.176559 -183.021811 
L 855.165386 -181.655979 
L 857.211676 -180.290148 
L 859.178266 -178.924317 
L 860.912315 -177.558485 
L 862.26457 -176.192654 
L 863.11083 -174.826823 
L 863.371562 -173.460992 
L 863.025756 -172.09516 
L 862.116251 -170.729329 
L 860.745773 -169.363498 
L 859.065079 -167.997666 
L 857.256367 -166.631835 
L 855.515805 -165.266004 
L 854.038568 -163.900173 
L 853.008245 -162.534341 
L 852.59046 -161.16851 
L 852.928693 -159.802679 
L 854.139321 -158.436847 
L 856.303125 -157.071016 
L 859.452134 -155.705185 
L 863.553117 -154.339354 
L 868.491754 -152.973522 
L 874.063394 -151.607691 
L 879.976572 -150.24186 
L 885.873543 -148.876028 
L 891.368224 -147.510197 
L 896.096885 -146.144366 
L 899.772289 -144.778535 
L 902.229283 -143.412703 
L 903.450321 -142.046872 
L 903.563429 -140.681041 
L 902.811689 -139.315209 
L 901.500824 -137.949378 
L 899.937376 -136.583547 
L 898.372661 -135.217716 
L 896.965936 -133.851884 
L 895.774703 -132.486053 
L 894.772283 -131.120222 
L 893.885138 -129.75439 
L 893.03726 -128.388559 
L 892.187642 -127.022728 
L 891.349888 -125.656897 
L 890.589143 -124.291065 
L 889.99892 -122.925234 
L 889.666679 -121.559403 
L 889.640259 -120.193571 
L 889.906618 -118.82774 
L 890.390023 -117.461909 
L 890.970335 -116.096078 
L 891.515496 -114.730246 
L 891.91765 -113.364415 
L 892.121225 -111.998584 
L 892.133805 -110.632752 
L 892.016125 -109.266921 
L 891.854136 -107.90109 
L 891.721766 -106.535258 
L 891.64597 -105.169427 
L 891.585069 -103.803596 
L 891.427371 -102.437765 
L 891.011079 -101.071933 
L 890.160228 -99.706102 
L 888.726926 -98.340271 
L 886.628618 -96.974439 
L 883.87088 -95.608608 
L 880.550572 -94.242777 
L 876.839621 -92.876946 
L 872.954597 -91.511114 
L 869.120203 -90.145283 
L 865.535264 -88.779452 
L 862.347957 -87.41362 
L 859.643758 -86.047789 
L 857.446035 -84.681958 
L 855.726451 -83.316127 
L 854.420852 -81.950295 
L 853.446299 -80.584464 
L 852.715885 -79.218633 
L 852.149495 -77.852801 
L 851.680107 -76.48697 
L 851.256278 -75.121139 
L 850.841959 -73.755308 
L 850.414815 -72.389476 
L 849.963941 -71.023645 
L 849.487518 -69.657814 
L 848.990608 -68.291982 
L 848.483119 -66.926151 
L 847.977867 -65.56032 
L 847.48875 -64.194489 
L 847.02906 -62.828657 
L 846.61006 -61.462826 
L 846.239945 -60.096995 
L 845.923294 -58.731163 
L 845.661027 -57.365332 
L 845.450812 -55.999501 
L 845.287808 -54.63367 
L 845.165561 -53.267838 
z
" style="stroke: #3e3e3e; stroke-width: 3"/>
    </defs>
    <g clip-path="url(#p18944ccb56)">
     <use xlink:href="#m64239030d0" x="0" y="288" style="fill: #e6e64c; stroke: #3e3e3e; stroke-width: 3"/>
    </g>
   </g>
   <g id="PolyCollection_7">
    <defs>
     <path id="mc655ec29fb" d="M 992.296575 -69.955614 
L 990.811997 -69.955614 
L 990.45691 -71.091794 
L 989.962806 -72.227975 
L 989.290134 -73.364155 
L 988.394436 -74.500335 
L 987.228309 -75.636515 
L 985.744436 -76.772695 
L 983.899688 -77.908875 
L 981.660084 -79.045056 
L 979.006207 -80.181236 
L 975.938447 -81.317416 
L 972.481317 -82.453596 
L 968.68601 -83.589776 
L 964.630483 -84.725956 
L 960.416592 -85.862137 
L 956.164184 -86.998317 
L 952.00256 -88.134497 
L 948.060178 -89.270677 
L 944.45389 -90.406857 
L 941.279178 -91.543037 
L 938.602851 -92.679218 
L 936.459304 -93.815398 
L 934.850908 -94.951578 
L 933.752423 -96.087758 
L 933.11862 -97.223938 
L 932.893714 -98.360118 
L 933.020938 -99.496299 
L 933.45052 -100.632479 
L 934.144712 -101.768659 
L 935.079024 -102.904839 
L 936.239604 -104.041019 
L 937.617406 -105.177199 
L 939.200391 -106.31338 
L 940.965415 -107.44956 
L 942.871485 -108.58574 
L 944.855875 -109.72192 
L 946.834102 -110.8581 
L 948.704129 -111.994281 
L 950.35447 -113.130461 
L 951.675227 -114.266641 
L 952.570596 -115.402821 
L 952.971078 -116.539001 
L 952.843593 -117.675181 
L 952.197895 -118.811362 
L 951.08812 -119.947542 
L 949.60891 -121.083722 
L 947.886316 -122.219902 
L 946.064418 -123.356082 
L 944.289275 -124.492262 
L 942.69231 -125.628443 
L 941.375393 -126.764623 
L 940.399771 -127.900803 
L 939.780442 -129.036983 
L 939.486844 -130.173163 
L 939.449743 -131.309343 
L 939.573268 -132.445524 
L 939.750253 -133.581704 
L 939.878554 -134.717884 
L 939.875883 -135.854064 
L 939.691038 -136.990244 
L 939.310011 -138.126424 
L 938.756364 -139.262605 
L 938.086161 -140.398785 
L 937.378603 -141.534965 
L 936.724092 -142.671145 
L 936.211716 -143.807325 
L 935.918057 -144.943505 
L 935.898842 -146.079686 
L 936.184324 -147.215866 
L 936.778629 -148.352046 
L 937.662636 -149.488226 
L 938.799519 -150.624406 
L 940.141787 -151.760587 
L 941.638652 -152.896767 
L 943.242689 -154.032947 
L 944.915074 -155.169127 
L 946.628938 -156.305307 
L 948.370742 -157.441487 
L 950.139768 -158.577668 
L 951.946003 -159.713848 
L 953.806795 -160.850028 
L 955.742711 -161.986208 
L 957.773097 -163.122388 
L 959.911821 -164.258568 
L 962.163694 -165.394749 
L 964.522019 -166.530929 
L 966.967585 -167.667109 
L 969.469251 -168.803289 
L 971.986076 -169.939469 
L 974.470701 -171.075649 
L 976.873528 -172.21183 
L 979.147105 -173.34801 
L 981.250155 -174.48419 
L 983.150721 -175.62037 
L 984.828111 -176.75655 
L 986.273507 -177.89273 
L 987.489331 -179.028911 
L 988.487587 -180.165091 
L 989.287574 -181.301271 
L 989.913305 -182.437451 
L 993.195266 -182.437451 
L 993.195266 -182.437451 
L 993.820997 -181.301271 
L 994.620984 -180.165091 
L 995.619241 -179.028911 
L 996.835064 -177.89273 
L 998.280461 -176.75655 
L 999.95785 -175.62037 
L 1001.858416 -174.48419 
L 1003.961466 -173.34801 
L 1006.235044 -172.21183 
L 1008.63787 -171.075649 
L 1011.122496 -169.939469 
L 1013.63932 -168.803289 
L 1016.140986 -167.667109 
L 1018.586552 -166.530929 
L 1020.944878 -165.394749 
L 1023.19675 -164.258568 
L 1025.335474 -163.122388 
L 1027.365861 -161.986208 
L 1029.301777 -160.850028 
L 1031.162568 -159.713848 
L 1032.968804 -158.577668 
L 1034.73783 -157.441487 
L 1036.479634 -156.305307 
L 1038.193498 -155.169127 
L 1039.865882 -154.032947 
L 1041.46992 -152.896767 
L 1042.966784 -151.760587 
L 1044.309053 -150.624406 
L 1045.445936 -149.488226 
L 1046.329943 -148.352046 
L 1046.924247 -147.215866 
L 1047.20973 -146.079686 
L 1047.190515 -144.943505 
L 1046.896856 -143.807325 
L 1046.384479 -142.671145 
L 1045.729968 -141.534965 
L 1045.022411 -140.398785 
L 1044.352208 -139.262605 
L 1043.79856 -138.126424 
L 1043.417533 -136.990244 
L 1043.232688 -135.854064 
L 1043.230017 -134.717884 
L 1043.358318 -133.581704 
L 1043.535304 -132.445524 
L 1043.658828 -131.309343 
L 1043.621727 -130.173163 
L 1043.32813 -129.036983 
L 1042.7088 -127.900803 
L 1041.733178 -126.764623 
L 1040.416262 -125.628443 
L 1038.819296 -124.492262 
L 1037.044154 -123.356082 
L 1035.222255 -122.219902 
L 1033.499661 -121.083722 
L 1032.020451 -119.947542 
L 1030.910676 -118.811362 
L 1030.264979 -117.675181 
L 1030.137493 -116.539001 
L 1030.537975 -115.402821 
L 1031.433344 -114.266641 
L 1032.754102 -113.130461 
L 1034.404443 -111.994281 
L 1036.27447 -110.8581 
L 1038.252696 -109.72192 
L 1040.237086 -108.58574 
L 1042.143156 -107.44956 
L 1043.908181 -106.31338 
L 1045.491166 -105.177199 
L 1046.868967 -104.041019 
L 1048.029548 -102.904839 
L 1048.963859 -101.768659 
L 1049.658051 -100.632479 
L 1050.087634 -99.496299 
L 1050.214857 -98.360118 
L 1049.989952 -97.223938 
L 1049.356148 -96.087758 
L 1048.257664 -94.951578 
L 1046.649267 -93.815398 
L 1044.50572 -92.679218 
L 1041.829394 -91.543037 
L 1038.654682 -90.406857 
L 1035.048393 -89.270677 
L 1031.106012 -88.134497 
L 1026.944388 -86.998317 
L 1022.69198 -85.862137 
L 1018.478088 -84.725956 
L 1014.422562 -83.589776 
L 1010.627254 -82.453596 
L 1007.170124 -81.317416 
L 1004.102364 -80.181236 
L 1001.448487 -79.045056 
L 999.208883 -77.908875 
L 997.364135 -76.772695 
L 995.880263 -75.636515 
L 994.714136 -74.500335 
L 993.818438 -73.364155 
L 993.145765 -72.227975 
L 992.651662 -71.091794 
L 992.296575 -69.955614 
z
" style="stroke: #3e3e3e; stroke-width: 3"/>
    </defs>
    <g clip-path="url(#p18944ccb56)">
     <use xlink:href="#mc655ec29fb" x="0" y="288" style="fill: #965a38; stroke: #3e3e3e; stroke-width: 3"/>
    </g>
   </g>
   <g id="line2d_9">
    <path d="M 111.645714 205.008557 
L 111.645714 115.113658 
" clip-path="url(#p18944ccb56)" style="fill: none; stroke: #3e3e3e; stroke-width: 3"/>
   </g>
   <g id="line2d_10">
    <path d="M 111.645714 181.832528 
L 111.645714 140.396599 
" clip-path="url(#p18944ccb56)" style="fill: none; stroke: #3e3e3e; stroke-width: 9"/>
   </g>
   <g id="line2d_11">
    <path d="M 258.297143 229.786624 
L 258.297143 128.00885 
" clip-path="url(#p18944ccb56)" style="fill: none; stroke: #3e3e3e; stroke-width: 3"/>
   </g>
   <g id="line2d_12">
    <path d="M 258.297143 189.075514 
L 258.297143 148.364405 
" clip-path="url(#p18944ccb56)" style="fill: none; stroke: #3e3e3e; stroke-width: 9"/>
   </g>
   <g id="line2d_13">
    <path d="M 404.948571 196.471983 
L 404.948571 126.29312 
" clip-path="url(#p18944ccb56)" style="fill: none; stroke: #3e3e3e; stroke-width: 3"/>
   </g>
   <g id="line2d_14">
    <path d="M 404.948571 178.927267 
L 404.948571 143.837836 
" clip-path="url(#p18944ccb56)" style="fill: none; stroke: #3e3e3e; stroke-width: 9"/>
   </g>
   <g id="line2d_15">
    <path d="M 551.6 195.099072 
L 551.6 126.447794 
" clip-path="url(#p18944ccb56)" style="fill: none; stroke: #3e3e3e; stroke-width: 3"/>
   </g>
   <g id="line2d_16">
    <path d="M 551.6 181.368817 
L 551.6 140.17805 
" clip-path="url(#p18944ccb56)" style="fill: none; stroke: #3e3e3e; stroke-width: 9"/>
   </g>
   <g id="line2d_17">
    <path d="M 698.251429 192.785424 
L 698.251429 116.197906 
" clip-path="url(#p18944ccb56)" style="fill: none; stroke: #3e3e3e; stroke-width: 3"/>
   </g>
   <g id="line2d_18">
    <path d="M 698.251429 175.111381 
L 698.251429 151.545991 
" clip-path="url(#p18944ccb56)" style="fill: none; stroke: #3e3e3e; stroke-width: 9"/>
   </g>
   <g id="line2d_19">
    <path d="M 844.902857 219.831115 
L 844.902857 114.415911 
" clip-path="url(#p18944ccb56)" style="fill: none; stroke: #3e3e3e; stroke-width: 3"/>
   </g>
   <g id="line2d_20">
    <path d="M 844.902857 180.676896 
L 844.902857 144.534541 
" clip-path="url(#p18944ccb56)" style="fill: none; stroke: #3e3e3e; stroke-width: 9"/>
   </g>
   <g id="line2d_21">
    <path d="M 991.554286 203.143339 
L 991.554286 120.463596 
" clip-path="url(#p18944ccb56)" style="fill: none; stroke: #3e3e3e; stroke-width: 3"/>
   </g>
   <g id="line2d_22">
    <path d="M 991.554286 184.770063 
L 991.554286 141.899085 
" clip-path="url(#p18944ccb56)" style="fill: none; stroke: #3e3e3e; stroke-width: 9"/>
   </g>
   <g id="patch_3">
    <path d="M 38.32 254.21375 
L 38.32 44.64 
" style="fill: none; stroke: #f0f0f0; stroke-width: 3; stroke-linejoin: miter; stroke-linecap: square"/>
   </g>
   <g id="patch_4">
    <path d="M 1064.88 254.21375 
L 1064.88 44.64 
" style="fill: none; stroke: #f0f0f0; stroke-width: 3; stroke-linejoin: miter; stroke-linecap: square"/>
   </g>
   <g id="patch_5">
    <path d="M 38.32 254.21375 
L 1064.88 254.21375 
" style="fill: none; stroke: #f0f0f0; stroke-width: 3; stroke-linejoin: miter; stroke-linecap: square"/>
   </g>
   <g id="patch_6">
    <path d="M 38.32 44.64 
L 1064.88 44.64 
" style="fill: none; stroke: #f0f0f0; stroke-width: 3; stroke-linejoin: miter; stroke-linecap: square"/>
   </g>
   <g id="PathCollection_1">
    <defs>
     <path id="m47b412bd6e" d="M 0 3 
C 0.795609 3 1.55874 2.683901 2.12132 2.12132 
C 2.683901 1.55874 3 0.795609 3 0 
C 3 -0.795609 2.683901 -1.55874 2.12132 -2.12132 
C 1.55874 -2.683901 0.795609 -3 0 -3 
C -0.795609 -3 -1.55874 -2.683901 -2.12132 -2.12132 
C -2.683901 -1.55874 -3 -0.795609 -3 0 
C -3 0.795609 -2.683901 1.55874 -2.12132 2.12132 
C -1.55874 2.683901 -0.795609 3 0 3 
z
" style="stroke: #3e3e3e; stroke-width: 0.5"/>
    </defs>
    <g clip-path="url(#p18944ccb56)">
     <use xlink:href="#m47b412bd6e" x="111.645714" y="160.061108" style="fill: #ffffff; stroke: #3e3e3e; stroke-width: 0.5"/>
    </g>
   </g>
   <g id="PathCollection_2">
    <g clip-path="url(#p18944ccb56)">
     <use xlink:href="#m47b412bd6e" x="258.297143" y="168.71996" style="fill: #ffffff; stroke: #3e3e3e; stroke-width: 0.5"/>
    </g>
   </g>
   <g id="PathCollection_3">
    <g clip-path="url(#p18944ccb56)">
     <use xlink:href="#m47b412bd6e" x="404.948571" y="161.382551" style="fill: #ffffff; stroke: #3e3e3e; stroke-width: 0.5"/>
    </g>
   </g>
   <g id="PathCollection_4">
    <g clip-path="url(#p18944ccb56)">
     <use xlink:href="#m47b412bd6e" x="551.6" y="167.638561" style="fill: #ffffff; stroke: #3e3e3e; stroke-width: 0.5"/>
    </g>
   </g>
   <g id="PathCollection_5">
    <g clip-path="url(#p18944ccb56)">
     <use xlink:href="#m47b412bd6e" x="698.251429" y="163.328686" style="fill: #ffffff; stroke: #3e3e3e; stroke-width: 0.5"/>
    </g>
   </g>
   <g id="PathCollection_6">
    <g clip-path="url(#p18944ccb56)">
     <use xlink:href="#m47b412bd6e" x="844.902857" y="159.593856" style="fill: #ffffff; stroke: #3e3e3e; stroke-width: 0.5"/>
    </g>
   </g>
   <g id="PathCollection_7">
    <g clip-path="url(#p18944ccb56)">
     <use xlink:href="#m47b412bd6e" x="991.554286" y="160.272361" style="fill: #ffffff; stroke: #3e3e3e; stroke-width: 0.5"/>
    </g>
   </g>
  </g>
  <g id="text_16">
   <!-- Violin Plot of all Continuous Variables -->
   <g style="fill: #262626" transform="translate(400.766016 17.157656) scale(0.15 -0.15)">
    <defs>
     <path id="DejaVuSans-56" d="M 1831 0 
L 50 4666 
L 709 4666 
L 2188 738 
L 3669 4666 
L 4325 4666 
L 2547 0 
L 1831 0 
z
" transform="scale(0.015625)"/>
     <path id="DejaVuSans-20" transform="scale(0.015625)"/>
     <path id="DejaVuSans-50" d="M 1259 4147 
L 1259 2394 
L 2053 2394 
Q 2494 2394 2734 2622 
Q 2975 2850 2975 3272 
Q 2975 3691 2734 3919 
Q 2494 4147 2053 4147 
L 1259 4147 
z
M 628 4666 
L 2053 4666 
Q 2838 4666 3239 4311 
Q 3641 3956 3641 3272 
Q 3641 2581 3239 2228 
Q 2838 1875 2053 1875 
L 1259 1875 
L 1259 0 
L 628 0 
L 628 4666 
z
" transform="scale(0.015625)"/>
     <path id="DejaVuSans-43" d="M 4122 4306 
L 4122 3641 
Q 3803 3938 3442 4084 
Q 3081 4231 2675 4231 
Q 1875 4231 1450 3742 
Q 1025 3253 1025 2328 
Q 1025 1406 1450 917 
Q 1875 428 2675 428 
Q 3081 428 3442 575 
Q 3803 722 4122 1019 
L 4122 359 
Q 3791 134 3420 21 
Q 3050 -91 2638 -91 
Q 1578 -91 968 557 
Q 359 1206 359 2328 
Q 359 3453 968 4101 
Q 1578 4750 2638 4750 
Q 3056 4750 3426 4639 
Q 3797 4528 4122 4306 
z
" transform="scale(0.015625)"/>
     <path id="DejaVuSans-62" d="M 3116 1747 
Q 3116 2381 2855 2742 
Q 2594 3103 2138 3103 
Q 1681 3103 1420 2742 
Q 1159 2381 1159 1747 
Q 1159 1113 1420 752 
Q 1681 391 2138 391 
Q 2594 391 2855 752 
Q 3116 1113 3116 1747 
z
M 1159 2969 
Q 1341 3281 1617 3432 
Q 1894 3584 2278 3584 
Q 2916 3584 3314 3078 
Q 3713 2572 3713 1747 
Q 3713 922 3314 415 
Q 2916 -91 2278 -91 
Q 1894 -91 1617 61 
Q 1341 213 1159 525 
L 1159 0 
L 581 0 
L 581 4863 
L 1159 4863 
L 1159 2969 
z
" transform="scale(0.015625)"/>
    </defs>
    <use xlink:href="#DejaVuSans-56"/>
    <use xlink:href="#DejaVuSans-69" x="66.158203"/>
    <use xlink:href="#DejaVuSans-6f" x="93.941406"/>
    <use xlink:href="#DejaVuSans-6c" x="155.123047"/>
    <use xlink:href="#DejaVuSans-69" x="182.90625"/>
    <use xlink:href="#DejaVuSans-6e" x="210.689453"/>
    <use xlink:href="#DejaVuSans-20" x="274.068359"/>
    <use xlink:href="#DejaVuSans-50" x="305.855469"/>
    <use xlink:href="#DejaVuSans-6c" x="366.158203"/>
    <use xlink:href="#DejaVuSans-6f" x="393.941406"/>
    <use xlink:href="#DejaVuSans-74" x="455.123047"/>
    <use xlink:href="#DejaVuSans-20" x="494.332031"/>
    <use xlink:href="#DejaVuSans-6f" x="526.119141"/>
    <use xlink:href="#DejaVuSans-66" x="587.300781"/>
    <use xlink:href="#DejaVuSans-20" x="622.505859"/>
    <use xlink:href="#DejaVuSans-61" x="654.292969"/>
    <use xlink:href="#DejaVuSans-6c" x="715.572266"/>
    <use xlink:href="#DejaVuSans-6c" x="743.355469"/>
    <use xlink:href="#DejaVuSans-20" x="771.138672"/>
    <use xlink:href="#DejaVuSans-43" x="802.925781"/>
    <use xlink:href="#DejaVuSans-6f" x="872.75"/>
    <use xlink:href="#DejaVuSans-6e" x="933.931641"/>
    <use xlink:href="#DejaVuSans-74" x="997.310547"/>
    <use xlink:href="#DejaVuSans-69" x="1036.519531"/>
    <use xlink:href="#DejaVuSans-6e" x="1064.302734"/>
    <use xlink:href="#DejaVuSans-75" x="1127.681641"/>
    <use xlink:href="#DejaVuSans-6f" x="1191.060547"/>
    <use xlink:href="#DejaVuSans-75" x="1252.242188"/>
    <use xlink:href="#DejaVuSans-73" x="1315.621094"/>
    <use xlink:href="#DejaVuSans-20" x="1367.720703"/>
    <use xlink:href="#DejaVuSans-56" x="1399.507812"/>
    <use xlink:href="#DejaVuSans-61" x="1460.166016"/>
    <use xlink:href="#DejaVuSans-72" x="1521.445312"/>
    <use xlink:href="#DejaVuSans-69" x="1562.558594"/>
    <use xlink:href="#DejaVuSans-61" x="1590.341797"/>
    <use xlink:href="#DejaVuSans-62" x="1651.621094"/>
    <use xlink:href="#DejaVuSans-6c" x="1715.097656"/>
    <use xlink:href="#DejaVuSans-65" x="1742.880859"/>
    <use xlink:href="#DejaVuSans-73" x="1804.404297"/>
   </g>
  </g>
 </g>
 <defs>
  <clipPath id="p18944ccb56">
   <rect x="38.32" y="44.64" width="1026.56" height="209.57375"/>
  </clipPath>
 </defs>
</svg>
